<?xml version="1.0" encoding="utf-8"?>
<!-- Generator: Adobe Illustrator 17.1.0, SVG Export Plug-In . SVG Version: 6.00 Build 0)  -->
<!DOCTYPE svg PUBLIC "-//W3C//DTD SVG 1.1//EN" "http://www.w3.org/Graphics/SVG/1.1/DTD/svg11.dtd">
<svg version="1.1" id="Layer_1" xmlns="http://www.w3.org/2000/svg" xmlns:xlink="http://www.w3.org/1999/xlink" x="0px" y="0px"
	 viewBox="0 0 387.8 251.7" enable-background="new 0 0 387.8 251.7" xml:space="preserve">
<g>
	<g>
		<path d="M380.8,85.4c-18-48.8-53.2-77-104.8-84.5c-1.1-0.2-2.2-0.6-3.3-0.9h-22c-0.9,0.3-1.9,0.7-2.8,0.8
			c-35.8,4.2-64.6,20.7-86.6,49.1c-10.7,13.8-18.1,29.3-22.1,46.8c1.8,0.1,3.3,0.2,4.6,0.3C159.9,32.3,225.3-7.3,290,8.3
			c60,14.5,99.5,71.4,91.8,133.7c-6.9,56.4-58,103.1-115.6,104.7c-66.4,1.9-108.3-46-117.8-79.9c1.7-0.7,3.5-1.4,6.3-2.5
			c-2.9-2.6-5.2-4.5-7.4-6.5c-2.2-2-4.4-4.2-7.1-6.7c-1,3.8-1.8,6.7-2.6,9.5c-0.8,3-1.4,5.9-2.3,9.4c1.9-0.5,3-0.8,4.1-1
			c1.1-0.2,2.2-0.3,3.3-0.4c0.6,1.3,1.1,2.4,1.5,3.4c16.1,38.5,44.2,63.8,84.4,75.3c7.1,2.1,14.6,3,21.9,4.4h22
			c7.6-1.6,15.4-2.7,22.9-4.8c49.9-14,85.1-55.3,91.3-106.8c0.1-1.1,0.6-2.2,0.9-3.3v-22C385.5,105,384.3,94.8,380.8,85.4z
			 M36.2,112.8H36c-1.7-2.6-4-4.6-6.7-6c-2.8-1.3-5.6-2-8.5-2c-3.2,0-6,0.5-8.6,1.6c-2.6,1.1-4.7,2.6-6.5,4.5
			c-1.8,1.9-3.2,4.1-4.2,6.7C0.5,120.2,0,123,0,126c0,3,0.5,5.8,1.5,8.3c1,2.6,2.4,4.8,4.2,6.7c1.8,1.9,4,3.4,6.5,4.5
			c2.5,1.1,5.4,1.6,8.6,1.6c2.9,0,5.8-0.7,8.5-2c2.8-1.3,5-3.3,6.7-5.8h0.2v6.8H42v-65h-5.8V112.8z M35.7,132.4
			c-0.8,2-1.8,3.7-3.2,5.1c-1.4,1.4-3,2.6-4.9,3.4c-1.9,0.8-4,1.2-6.2,1.2c-2.4,0-4.6-0.4-6.4-1.2c-1.9-0.8-3.5-2-4.8-3.4
			s-2.3-3.2-3-5.2c-0.7-2-1-4.1-1-6.3c0-2.2,0.3-4.3,1-6.3c0.7-2,1.7-3.7,3-5.2c1.3-1.5,2.9-2.6,4.8-3.5c1.9-0.9,4-1.3,6.4-1.3
			c2.2,0,4.3,0.4,6.2,1.2c1.9,0.8,3.5,2,4.9,3.4c1.4,1.5,2.5,3.2,3.2,5.2c0.8,2,1.2,4.1,1.2,6.4C36.9,128.2,36.5,130.4,35.7,132.4z
			 M86.8,110.7c-1.6-1.8-3.6-3.2-6-4.3c-2.4-1.1-5.2-1.6-8.3-1.6c-2.9,0-5.5,0.5-8,1.6c-2.5,1.1-4.6,2.5-6.4,4.4
			c-1.8,1.9-3.3,4.1-4.3,6.7c-1,2.6-1.5,5.4-1.5,8.4c0,3,0.5,5.8,1.6,8.4c1.1,2.6,2.5,4.8,4.3,6.7c1.8,1.9,4,3.4,6.6,4.4
			c2.5,1.1,5.3,1.6,8.3,1.6c3.3,0,6.4-0.7,9.3-2c2.9-1.3,5.5-3.5,8-6.5l-4.4-3.4c-1.1,1.8-2.8,3.5-5,4.9c-2.2,1.4-4.8,2.1-7.9,2.1
			c-2.1,0-4-0.4-5.8-1.2c-1.8-0.8-3.3-1.8-4.6-3.1c-1.3-1.3-2.4-2.9-3.1-4.6c-0.7-1.8-1.1-3.7-1.2-5.7h33.4c0.1-0.5,0.1-1,0.1-1.5
			v-1.3c0-2.8-0.4-5.3-1.2-7.7C89.7,114.6,88.5,112.5,86.8,110.7z M58.4,122.9c0.1-1.7,0.5-3.4,1.3-4.9c0.7-1.6,1.7-3,3-4.2
			c1.3-1.2,2.7-2.2,4.4-2.9c1.7-0.7,3.5-1.1,5.4-1.1c4.2,0,7.4,1.2,9.7,3.7c2.3,2.5,3.5,5.6,3.7,9.4H58.4z M101.9,146.1h5.8v-65
			h-5.8V146.1z M148,145.5c2.6-1.1,4.9-2.5,6.8-4.4c1.9-1.9,3.4-4.1,4.4-6.7c1.1-2.6,1.6-5.4,1.6-8.4c0-3-0.5-5.8-1.6-8.4
			c-1.1-2.6-2.5-4.8-4.4-6.7c-1.9-1.9-4.2-3.4-6.8-4.4c-2.6-1.1-5.5-1.6-8.7-1.6c-3.1,0-6,0.5-8.6,1.6c-2.6,1.1-4.9,2.5-6.8,4.4
			c-1.9,1.9-3.4,4.1-4.4,6.7c-1.1,2.6-1.6,5.4-1.6,8.4c0,3,0.5,5.8,1.6,8.4c1.1,2.6,2.5,4.8,4.4,6.7c1.9,1.9,4.2,3.4,6.8,4.4
			c2.6,1.1,5.5,1.6,8.6,1.6C142.4,147.1,145.3,146.6,148,145.5z M128.2,137.4c-1.3-1.5-2.3-3.2-3.1-5.2c-0.7-2-1.1-4.1-1.1-6.3
			c0-2.2,0.4-4.3,1.1-6.3c0.7-2,1.7-3.7,3.1-5.2c1.3-1.5,2.9-2.6,4.8-3.5c1.9-0.9,4-1.3,6.3-1.3c2.3,0,4.5,0.4,6.4,1.3
			c1.9,0.9,3.5,2,4.8,3.5c1.3,1.5,2.3,3.2,3.1,5.2c0.7,2,1.1,4.1,1.1,6.3c0,2.2-0.4,4.3-1.1,6.3c-0.7,2-1.7,3.7-3.1,5.2
			c-1.3,1.5-2.9,2.6-4.8,3.4c-1.9,0.8-4,1.2-6.4,1.2c-2.4,0-4.5-0.4-6.3-1.2C131.1,140,129.5,138.9,128.2,137.4z M176.6,146.1v-20.6
			c0-2.7,0.3-5,1-6.9c0.7-1.9,1.5-3.5,2.6-4.7c1.1-1.2,2.3-2.1,3.7-2.7c1.4-0.6,2.9-0.9,4.5-0.9c0.8,0,1.6,0.1,2.4,0.2
			c0.8,0.1,1.4,0.2,1.7,0.3l0.8-5.6c-0.6-0.2-1.2-0.3-1.8-0.3c-0.6-0.1-1.3-0.1-2-0.1c-2.9,0-5.4,0.7-7.7,2.2
			c-2.3,1.5-4,3.4-5.2,5.7h-0.2c0-0.9,0-1.9-0.1-3.3c-0.1-1.3-0.1-2.5-0.3-3.6h-5.6c0.1,1.4,0.2,2.9,0.3,4.6
			c0.1,1.7,0.1,3.1,0.1,4.2v31.4H176.6z M234.2,126v-1.3c0-2.8-0.4-5.3-1.2-7.7c-0.8-2.4-2.1-4.5-3.7-6.3c-1.6-1.8-3.6-3.2-6-4.3
			c-2.4-1.1-5.2-1.6-8.3-1.6c-2.9,0-5.5,0.5-8,1.6c-2.5,1.1-4.6,2.5-6.4,4.4c-1.8,1.9-3.3,4.1-4.3,6.7c-1,2.6-1.5,5.4-1.5,8.4
			c0,3,0.5,5.8,1.6,8.4c1.1,2.6,2.5,4.8,4.3,6.7c1.8,1.9,4,3.4,6.6,4.4c2.5,1.1,5.3,1.6,8.3,1.6c3.3,0,6.4-0.7,9.3-2
			c2.9-1.3,5.5-3.5,8-6.5l-4.4-3.4c-1.1,1.8-2.8,3.5-5,4.9c-2.2,1.4-4.8,2.1-7.9,2.1c-2.1,0-4-0.4-5.8-1.2c-1.8-0.8-3.3-1.8-4.6-3.1
			c-1.3-1.3-2.4-2.9-3.1-4.6c-0.7-1.8-1.1-3.7-1.2-5.7h33.4C234.2,127,234.2,126.5,234.2,126z M200.9,122.9c0.1-1.7,0.5-3.4,1.3-4.9
			c0.7-1.6,1.7-3,3-4.2c1.3-1.2,2.7-2.2,4.4-2.9c1.7-0.7,3.5-1.1,5.4-1.1c4.2,0,7.4,1.2,9.7,3.7c2.3,2.5,3.5,5.6,3.7,9.4H200.9z
			 M258.4,121.7c-3.4,0.3-6.4,0.8-9.1,1.7c-2.6,0.9-4.7,2.2-6.3,4.1c-1.6,1.8-2.4,4.3-2.4,7.4c0,2.2,0.4,4.1,1.3,5.7
			c0.9,1.6,2,2.8,3.4,3.8c1.3,1,2.8,1.7,4.5,2.1c1.6,0.4,3.2,0.6,4.8,0.6c3.3,0,6.1-0.6,8.4-1.8c2.3-1.2,4.4-3.1,6.2-5.8h0.2
			c0,1.1,0.1,2.2,0.2,3.4c0.1,1.1,0.3,2.2,0.4,3.2h5.2c-0.2-1.1-0.4-2.5-0.5-4.2c-0.1-1.7-0.2-3.3-0.2-4.8v-17.6
			c0-2.5-0.4-4.6-1.2-6.4c-0.8-1.8-1.9-3.4-3.4-4.6c-1.4-1.2-3.1-2.1-5-2.7c-1.9-0.6-3.9-0.9-6.1-0.9c-3.4,0-6.5,0.5-9.2,1.6
			c-2.7,1.1-4.9,2.5-6.6,4.1l3.3,3.9c1.4-1.4,3.2-2.6,5.2-3.4c2.1-0.9,4.3-1.3,6.7-1.3c3.5,0,6.2,0.9,8,2.6c1.8,1.7,2.8,4.3,2.8,7.8
			v1.3C265.4,121.3,261.8,121.4,258.4,121.7z M269.1,129c0,1.8-0.3,3.5-0.9,5.1c-0.6,1.6-1.4,3-2.5,4.3c-1.1,1.2-2.4,2.2-4,2.9
			c-1.6,0.7-3.4,1.1-5.5,1.1c-1.1,0-2.3-0.1-3.4-0.4c-1.1-0.3-2.1-0.7-3.1-1.3c-0.9-0.6-1.6-1.4-2.2-2.4c-0.5-1-0.8-2.2-0.8-3.6
			c0-1.9,0.6-3.4,1.9-4.6c1.3-1.1,2.9-2,4.9-2.6c2-0.6,4.2-1,6.6-1.2c2.4-0.2,4.9-0.3,7.3-0.3h1.7V129z M321.8,146.1v-24.7
			c0-5-1.3-9-3.8-12c-2.6-3-6.4-4.6-11.5-4.6c-2.9,0-5.6,0.7-8.2,2.2c-2.6,1.5-4.4,3.4-5.6,5.7h-0.2c0-0.9,0-1.9-0.1-3.3
			c-0.1-1.3-0.1-2.5-0.3-3.6h-5.6c0.1,1.4,0.2,2.9,0.3,4.6c0.1,1.7,0.1,3.1,0.1,4.2v31.4h5.8v-20.6c0-2.7,0.3-5,1-7
			c0.7-2,1.6-3.6,2.8-4.9c1.1-1.3,2.5-2.2,3.9-2.9c1.5-0.6,3-0.9,4.5-0.9c2.1,0,3.9,0.3,5.3,1c1.4,0.7,2.5,1.6,3.4,2.9
			c0.8,1.2,1.4,2.7,1.8,4.4c0.3,1.7,0.5,3.6,0.5,5.8v22.3H321.8z"/>
	</g>
</g>
</svg>
